<svg width="165" height="35" viewBox="0 0 165 35" fill="none" xmlns="http://www.w3.org/2000/svg">
<path d="M0.0830929 9.00561C4.47477 3.80348 22.0433 -0.0693899 25.5227 0.000942724C27.9998 0.0510218 29.1504 1.58638 30.2278 3.02445C30.5179 3.41147 30.8027 3.79145 31.1065 4.13355C31.3293 4.38429 31.8112 4.5375 32.1367 4.46245C32.82 4.305 33.4378 3.98986 34.1973 3.71999C35.2481 3.34671 36.2956 2.97459 37.1284 2.9043C37.1422 2.90313 37.1559 2.90208 37.1696 2.90114C38.2247 2.82825 39.1738 3.3827 39.6344 4.23936C39.7355 4.42736 39.9173 4.56632 40.1294 4.57416L40.5233 4.5887C40.6773 4.59438 40.7824 4.7481 40.7325 4.89508C40.7125 4.95419 40.6696 5.00264 40.6137 5.02948L40.4269 5.11905C40.3449 5.15842 40.2711 5.21306 40.209 5.28011L40.1685 5.32403C40.0086 5.49723 39.9197 5.72211 39.8676 5.9528C39.7352 6.53992 39.1301 7.12448 38.4167 7.54586C37.8074 7.90575 37.5273 8.96446 38.054 9.43914C38.1308 9.50842 38.2212 9.56071 38.3191 9.59268L38.3955 9.61758C40.3387 10.2515 41.7019 12.0155 41.8355 14.0747C42.2201 20.0071 42.9748 31.6286 42.9979 31.8524C43.0444 32.3041 42.313 31.6269 42.1488 31.2042L39.0891 23.3274L36.2468 17.9809C36.1914 17.8854 36.1236 17.7977 36.0341 17.7334C34.9221 16.9353 31.1686 16.5651 29.9997 17.1211C29.9457 17.1469 29.7928 17.2401 29.7456 17.2774L26.0008 20.388C25.6386 20.6889 25.3087 21.0274 25.0166 21.3981C24.2708 22.3892 23.2194 25.1994 21.9349 28.2952L21.9346 28.296C20.4975 31.7596 19.1191 35.0818 18.6849 34.9985C18.2505 34.9154 18.7381 31.9733 19.227 29.0235C19.6033 26.7532 20.2822 24.3007 20.2866 23.2934C20.2872 23.1571 20.1952 23.0445 20.0689 22.9962C19.8523 22.9032 17.6382 24.7569 15.409 26.6231L15.3634 26.6611H15.3633V26.6613H15.3632C11.8751 29.5816 7.60882 32.8779 7.93739 31.8424C8.50236 30.0616 16.7326 22.1408 19.9921 19.0487C20.6854 18.3911 21.3745 17.7218 21.9229 16.9368C22.5239 16.0767 23.1911 14.8559 23.555 14.1657C23.7397 13.8156 23.8734 13.4414 23.9614 13.0547C24.0572 12.6337 24.1146 12.2003 24.0543 11.7725C23.8089 10.034 22.7188 8.60799 21.1936 7.98079C21.1368 7.9575 20.8005 7.85888 20.7407 7.84679C17.9267 7.28099 15.0551 7.18193 11.731 7.41156C8.07889 7.66384 3.63405 8.05437 0.508274 9.53397C0.170778 9.69374 -0.158535 9.29182 0.0830929 9.00561Z" fill="#F57CCA"/>
<path d="M73.236 5.202V24H71.026V5.774C70.454 5.60067 69.6307 5.514 68.556 5.514H67.438C66.45 5.514 65.67 5.60067 65.098 5.774C65.0633 6.51933 65.0287 7.05667 64.994 7.386C64.994 7.49 64.9767 7.78467 64.942 8.27C64.9073 8.738 64.8813 9.154 64.864 9.518C64.8467 9.86467 64.8207 10.2807 64.786 10.766C64.7513 11.234 64.734 11.5373 64.734 11.676C64.578 14.1893 64.3613 16.122 64.084 17.474C63.824 18.8087 63.5553 19.9267 63.278 20.828C62.914 21.868 62.5067 22.6653 62.056 23.22C61.4493 23.9827 60.6 24.364 59.508 24.364C59.0227 24.364 58.5633 24.2427 58.13 24L58.286 22.804C58.8927 23.428 59.4647 23.74 60.002 23.74C60.73 23.74 61.3453 23.4627 61.848 22.908C62.2467 22.4053 62.6107 21.6687 62.94 20.698C63.2 19.9007 63.4427 18.8347 63.668 17.5C63.876 16.3213 64.0927 14.3887 64.318 11.702C64.422 10.454 64.474 9.09333 64.474 7.62C64.474 6.216 63.9193 5.514 62.81 5.514V5.202H73.236Z" fill="#1A286F"/>
<path d="M86.7243 23.662C86.9497 23.662 87.149 23.5407 87.3223 23.298C87.513 23.0553 87.643 22.726 87.7123 22.31H88.0243C87.851 23.6273 87.2097 24.286 86.1003 24.286C84.783 24.286 84.1243 23.3933 84.1243 21.608C82.4083 23.3933 80.7617 24.286 79.1843 24.286C78.2137 24.286 77.4597 24.0433 76.9223 23.558C76.4023 23.0727 76.1423 22.4313 76.1423 21.634C76.1423 19.9873 77.3383 18.6873 79.7303 17.734C80.8917 17.2833 82.131 16.9627 83.4483 16.772L84.1243 16.668V15.342C84.1243 13.99 83.8817 13.0107 83.3963 12.404C82.911 11.7973 82.0703 11.494 80.8743 11.494C80.0943 11.494 79.375 11.6933 78.7163 12.092C77.919 12.612 77.5203 13.2793 77.5203 14.094C77.5203 14.5447 77.555 14.8653 77.6243 15.056H77.2863C77.217 14.796 77.1823 14.4753 77.1823 14.094C77.1823 13.1753 77.6503 12.4213 78.5863 11.832C79.2797 11.3987 80.0943 11.182 81.0303 11.182C84.289 11.182 85.9183 12.5687 85.9183 15.342V22.232C85.9183 23.1853 86.187 23.662 86.7243 23.662ZM84.1243 21.192V16.98C82.4603 17.2747 81.0997 17.7253 80.0423 18.332C78.8463 18.9907 78.2483 19.9787 78.2483 21.296C78.2483 22.0067 78.4303 22.544 78.7943 22.908C79.1583 23.272 79.661 23.454 80.3023 23.454C80.8917 23.454 81.559 23.2113 82.3043 22.726C82.9977 22.2753 83.6043 21.764 84.1243 21.192Z" fill="#1A286F"/>
<path d="M95.4181 23.662C96.2847 23.662 97.0907 23.4107 97.8361 22.908C98.5814 22.388 99.1621 21.6427 99.5781 20.672L99.8641 20.802C98.8414 23.1247 97.2121 24.286 94.9761 24.286C93.2774 24.286 91.8734 23.7053 90.7641 22.544C89.6374 21.3827 89.0741 19.8227 89.0741 17.864C89.0741 16.0267 89.6114 14.4493 90.6861 13.132C91.7607 11.832 93.3121 11.182 95.3401 11.182C96.5014 11.182 97.4807 11.4853 98.2781 12.092C99.0407 12.6987 99.4221 13.4787 99.4221 14.432C99.4221 14.9173 99.3701 15.368 99.2661 15.784H98.9281C99.0321 15.4373 99.0841 14.9953 99.0841 14.458C99.0841 13.6433 98.7374 12.9413 98.0441 12.352C97.3681 11.78 96.4321 11.494 95.2361 11.494C93.9881 11.494 93.0001 12.014 92.2721 13.054C91.5441 14.0767 91.1801 15.68 91.1801 17.864C91.1801 19.736 91.5614 21.1747 92.3241 22.18C93.1041 23.168 94.1354 23.662 95.4181 23.662Z" fill="#1A286F"/>
<path d="M100.764 11.494H111.918L111.97 12.794C111.207 12.1353 109.925 11.806 108.122 11.806H107.238V24H105.444V11.806H104.56C102.757 11.806 101.475 12.1353 100.712 12.794L100.764 11.494Z" fill="#1A286F"/>
<path d="M125.522 17.76C125.522 19.7187 124.941 21.2873 123.78 22.466C122.618 23.6793 121.128 24.286 119.308 24.286C117.505 24.286 116.023 23.688 114.862 22.492C113.683 21.2787 113.094 19.7013 113.094 17.76C113.094 15.6627 113.657 14.042 114.784 12.898C115.91 11.754 117.418 11.182 119.308 11.182C121.232 11.182 122.748 11.7453 123.858 12.872C124.967 13.9813 125.522 15.6107 125.522 17.76ZM123.416 17.76C123.416 15.628 123.043 14.0507 122.298 13.028C121.552 12.0053 120.556 11.494 119.308 11.494C118.06 11.494 117.063 12.0053 116.318 13.028C115.572 14.0507 115.2 15.628 115.2 17.76C115.2 19.8573 115.572 21.4173 116.318 22.44C117.063 23.4627 118.06 23.974 119.308 23.974C120.556 23.974 121.552 23.4627 122.298 22.44C123.043 21.4173 123.416 19.8573 123.416 17.76Z" fill="#1A286F"/>
<path d="M134.816 17.344V11.494H136.61V24H134.816V17.656C133.394 18.436 131.904 18.826 130.344 18.826C129.009 18.826 128.151 18.4013 127.77 17.552C127.475 16.8933 127.328 16.278 127.328 15.706V11.494H129.122V15.706C129.122 17.37 129.815 18.202 131.202 18.202C132.432 18.202 133.637 17.916 134.816 17.344Z" fill="#1A286F"/>
<path d="M142.052 11.494V17.084H143.82C145.05 17.084 146.047 16.0007 146.81 13.834C147.122 12.9847 147.425 12.3607 147.72 11.962C147.962 11.6327 148.214 11.4247 148.474 11.338C148.716 11.234 149.028 11.182 149.41 11.182C149.86 11.182 150.268 11.2687 150.632 11.442L150.476 12.482C150.042 11.91 149.54 11.624 148.968 11.624C148.604 11.624 148.274 11.8233 147.98 12.222C147.685 12.638 147.425 13.184 147.2 13.86C146.801 14.9347 146.368 15.7667 145.9 16.356C145.57 16.772 145.198 17.0753 144.782 17.266C145.44 17.422 146.073 17.7253 146.68 18.176C147.616 18.8693 148.404 20.0653 149.046 21.764C149.306 22.44 149.54 22.9253 149.748 23.22C149.956 23.5147 150.19 23.662 150.45 23.662C150.918 23.662 151.186 23.2113 151.256 22.31H151.568C151.464 23.6273 150.892 24.286 149.852 24.286C148.621 24.286 147.555 23.272 146.654 21.244L145.848 19.372C145.518 18.5573 145.016 17.9593 144.34 17.578C144.114 17.4567 143.742 17.396 143.222 17.396H142.052V24H140.258V11.494H142.052Z" fill="#1A286F"/>
<path d="M162.769 23.662C162.995 23.662 163.194 23.5407 163.367 23.298C163.558 23.0553 163.688 22.726 163.757 22.31H164.069C163.896 23.6273 163.255 24.286 162.145 24.286C160.828 24.286 160.169 23.3933 160.169 21.608C158.453 23.3933 156.807 24.286 155.229 24.286C154.259 24.286 153.505 24.0433 152.967 23.558C152.447 23.0727 152.187 22.4313 152.187 21.634C152.187 19.9873 153.383 18.6873 155.775 17.734C156.937 17.2833 158.176 16.9627 159.493 16.772L160.169 16.668V15.342C160.169 13.99 159.927 13.0107 159.441 12.404C158.956 11.7973 158.115 11.494 156.919 11.494C156.139 11.494 155.42 11.6933 154.761 12.092C153.964 12.612 153.565 13.2793 153.565 14.094C153.565 14.5447 153.6 14.8653 153.669 15.056H153.331C153.262 14.796 153.227 14.4753 153.227 14.094C153.227 13.1753 153.695 12.4213 154.631 11.832C155.325 11.3987 156.139 11.182 157.075 11.182C160.334 11.182 161.963 12.5687 161.963 15.342V22.232C161.963 23.1853 162.232 23.662 162.769 23.662ZM160.169 21.192V16.98C158.505 17.2747 157.145 17.7253 156.087 18.332C154.891 18.9907 154.293 19.9787 154.293 21.296C154.293 22.0067 154.475 22.544 154.839 22.908C155.203 23.272 155.706 23.454 156.347 23.454C156.937 23.454 157.604 23.2113 158.349 22.726C159.043 22.2753 159.649 21.764 160.169 21.192Z" fill="#1A286F"/>
</svg>
