<svg width="107" height="20" viewBox="0 0 107 20" fill="none" xmlns="http://www.w3.org/2000/svg">
<path d="M15.236 0.202V19H13.026V0.774C12.454 0.600667 11.6307 0.514 10.556 0.514H9.43801C8.45001 0.514 7.67001 0.600667 7.098 0.774C7.06334 1.51933 7.02867 2.05667 6.99401 2.386C6.99401 2.49 6.97667 2.78467 6.94201 3.27C6.90734 3.738 6.88134 4.154 6.864 4.518C6.84667 4.86467 6.82067 5.28067 6.78601 5.766C6.75134 6.234 6.734 6.53733 6.734 6.676C6.578 9.18933 6.36134 11.122 6.08401 12.474C5.82401 13.8087 5.55534 14.9267 5.27801 15.828C4.91401 16.868 4.50667 17.6653 4.05601 18.22C3.44934 18.9827 2.60001 19.364 1.508 19.364C1.02267 19.364 0.563338 19.2427 0.130005 19L0.286005 17.804C0.892672 18.428 1.46467 18.74 2.00201 18.74C2.73001 18.74 3.34534 18.4627 3.848 17.908C4.24667 17.4053 4.61067 16.6687 4.94001 15.698C5.20001 14.9007 5.44267 13.8347 5.668 12.5C5.876 11.3213 6.09267 9.38867 6.31801 6.702C6.42201 5.454 6.47401 4.09333 6.47401 2.62C6.47401 1.216 5.91934 0.514 4.81 0.514V0.202H15.236Z" fill="#1A286F"/>
<path d="M28.7243 18.662C28.9497 18.662 29.149 18.5407 29.3223 18.298C29.513 18.0553 29.643 17.726 29.7123 17.31H30.0243C29.851 18.6273 29.2097 19.286 28.1003 19.286C26.783 19.286 26.1243 18.3933 26.1243 16.608C24.4083 18.3933 22.7617 19.286 21.1843 19.286C20.2137 19.286 19.4597 19.0433 18.9223 18.558C18.4023 18.0727 18.1423 17.4313 18.1423 16.634C18.1423 14.9873 19.3383 13.6873 21.7303 12.734C22.8917 12.2833 24.131 11.9627 25.4483 11.772L26.1243 11.668V10.342C26.1243 8.99 25.8817 8.01067 25.3963 7.404C24.911 6.79733 24.0703 6.494 22.8743 6.494C22.0943 6.494 21.375 6.69333 20.7163 7.092C19.919 7.612 19.5203 8.27933 19.5203 9.094C19.5203 9.54467 19.555 9.86533 19.6243 10.056H19.2863C19.217 9.796 19.1823 9.47533 19.1823 9.094C19.1823 8.17533 19.6503 7.42133 20.5863 6.832C21.2796 6.39867 22.0943 6.182 23.0303 6.182C26.289 6.182 27.9183 7.56867 27.9183 10.342V17.232C27.9183 18.1853 28.187 18.662 28.7243 18.662ZM26.1243 16.192V11.98C24.4603 12.2747 23.0997 12.7253 22.0423 13.332C20.8463 13.9907 20.2483 14.9787 20.2483 16.296C20.2483 17.0067 20.4303 17.544 20.7943 17.908C21.1583 18.272 21.661 18.454 22.3023 18.454C22.8917 18.454 23.559 18.2113 24.3043 17.726C24.9977 17.2753 25.6043 16.764 26.1243 16.192Z" fill="#1A286F"/>
<path d="M37.4181 18.662C38.2847 18.662 39.0907 18.4107 39.8361 17.908C40.5814 17.388 41.1621 16.6427 41.5781 15.672L41.8641 15.802C40.8414 18.1247 39.2121 19.286 36.9761 19.286C35.2774 19.286 33.8734 18.7053 32.7641 17.544C31.6374 16.3827 31.0741 14.8227 31.0741 12.864C31.0741 11.0267 31.6114 9.44933 32.6861 8.132C33.7607 6.832 35.3121 6.182 37.3401 6.182C38.5014 6.182 39.4807 6.48533 40.2781 7.092C41.0407 7.69867 41.4221 8.47867 41.4221 9.432C41.4221 9.91733 41.3701 10.368 41.2661 10.784H40.9281C41.0321 10.4373 41.0841 9.99533 41.0841 9.458C41.0841 8.64333 40.7374 7.94133 40.0441 7.352C39.3681 6.78 38.4321 6.494 37.2361 6.494C35.9881 6.494 35.0001 7.014 34.2721 8.054C33.5441 9.07667 33.1801 10.68 33.1801 12.864C33.1801 14.736 33.5614 16.1747 34.3241 17.18C35.1041 18.168 36.1354 18.662 37.4181 18.662Z" fill="#1A286F"/>
<path d="M42.7639 6.494H53.9179L53.9699 7.794C53.2072 7.13533 51.9246 6.806 50.1219 6.806H49.2379V19H47.4439V6.806H46.5599C44.7572 6.806 43.4746 7.13533 42.7119 7.794L42.7639 6.494Z" fill="#1A286F"/>
<path d="M67.5216 12.76C67.5216 14.7187 66.9409 16.2873 65.7796 17.466C64.6183 18.6793 63.1276 19.286 61.3076 19.286C59.5049 19.286 58.0229 18.688 56.8616 17.492C55.6829 16.2787 55.0936 14.7013 55.0936 12.76C55.0936 10.6627 55.6569 9.042 56.7836 7.898C57.9103 6.754 59.4183 6.182 61.3076 6.182C63.2316 6.182 64.7483 6.74533 65.8576 7.872C66.9669 8.98133 67.5216 10.6107 67.5216 12.76ZM65.4156 12.76C65.4156 10.628 65.0429 9.05067 64.2976 8.028C63.5523 7.00533 62.5556 6.494 61.3076 6.494C60.0596 6.494 59.0629 7.00533 58.3176 8.028C57.5723 9.05067 57.1996 10.628 57.1996 12.76C57.1996 14.8573 57.5723 16.4173 58.3176 17.44C59.0629 18.4627 60.0596 18.974 61.3076 18.974C62.5556 18.974 63.5523 18.4627 64.2976 17.44C65.0429 16.4173 65.4156 14.8573 65.4156 12.76Z" fill="#1A286F"/>
<path d="M76.8156 12.344V6.494H78.6096V19H76.8156V12.656C75.3942 13.436 73.9036 13.826 72.3436 13.826C71.0089 13.826 70.1509 13.4013 69.7696 12.552C69.4749 11.8933 69.3276 11.278 69.3276 10.706V6.494H71.1216V10.706C71.1216 12.37 71.8149 13.202 73.2016 13.202C74.4323 13.202 75.6369 12.916 76.8156 12.344Z" fill="#1A286F"/>
<path d="M84.0515 6.494V12.084H85.8195C87.0502 12.084 88.0468 11.0007 88.8095 8.834C89.1215 7.98467 89.4248 7.36067 89.7195 6.962C89.9622 6.63267 90.2135 6.42467 90.4735 6.338C90.7162 6.234 91.0282 6.182 91.4095 6.182C91.8602 6.182 92.2675 6.26867 92.6315 6.442L92.4755 7.482C92.0422 6.91 91.5395 6.624 90.9675 6.624C90.6035 6.624 90.2742 6.82333 89.9795 7.222C89.6848 7.638 89.4248 8.184 89.1995 8.86C88.8008 9.93467 88.3675 10.7667 87.8995 11.356C87.5702 11.772 87.1975 12.0753 86.7815 12.266C87.4402 12.422 88.0728 12.7253 88.6795 13.176C89.6155 13.8693 90.4042 15.0653 91.0455 16.764C91.3055 17.44 91.5395 17.9253 91.7475 18.22C91.9555 18.5147 92.1895 18.662 92.4495 18.662C92.9175 18.662 93.1862 18.2113 93.2555 17.31H93.5675C93.4635 18.6273 92.8915 19.286 91.8515 19.286C90.6208 19.286 89.5548 18.272 88.6535 16.244L87.8475 14.372C87.5182 13.5573 87.0155 12.9593 86.3395 12.578C86.1142 12.4567 85.7415 12.396 85.2215 12.396H84.0515V19H82.2575V6.494H84.0515Z" fill="#1A286F"/>
<path d="M104.769 18.662C104.995 18.662 105.194 18.5407 105.367 18.298C105.558 18.0553 105.688 17.726 105.757 17.31H106.069C105.896 18.6273 105.255 19.286 104.145 19.286C102.828 19.286 102.169 18.3933 102.169 16.608C100.453 18.3933 98.8066 19.286 97.2292 19.286C96.2586 19.286 95.5046 19.0433 94.9672 18.558C94.4472 18.0727 94.1872 17.4313 94.1872 16.634C94.1872 14.9873 95.3832 13.6873 97.7752 12.734C98.9366 12.2833 100.176 11.9627 101.493 11.772L102.169 11.668V10.342C102.169 8.99 101.927 8.01067 101.441 7.404C100.956 6.79733 100.115 6.494 98.9192 6.494C98.1392 6.494 97.4199 6.69333 96.7612 7.092C95.9639 7.612 95.5652 8.27933 95.5652 9.094C95.5652 9.54467 95.5999 9.86533 95.6692 10.056H95.3312C95.2619 9.796 95.2272 9.47533 95.2272 9.094C95.2272 8.17533 95.6952 7.42133 96.6312 6.832C97.3246 6.39867 98.1392 6.182 99.0752 6.182C102.334 6.182 103.963 7.56867 103.963 10.342V17.232C103.963 18.1853 104.232 18.662 104.769 18.662ZM102.169 16.192V11.98C100.505 12.2747 99.1446 12.7253 98.0872 13.332C96.8912 13.9907 96.2932 14.9787 96.2932 16.296C96.2932 17.0067 96.4752 17.544 96.8392 17.908C97.2032 18.272 97.7059 18.454 98.3472 18.454C98.9366 18.454 99.6039 18.2113 100.349 17.726C101.043 17.2753 101.649 16.764 102.169 16.192Z" fill="#1A286F"/>
</svg>
