<svg width="20" height="18" viewBox="0 0 20 18" fill="none" xmlns="http://www.w3.org/2000/svg">
<path fill-rule="evenodd" clip-rule="evenodd" d="M0.499953 8.99996C0.499953 8.68502 0.625064 8.38297 0.847764 8.16027C1.07046 7.93757 1.37251 7.81246 1.68745 7.81246L15.4458 7.81246L10.3467 2.71571C10.2363 2.6053 10.1487 2.47423 10.089 2.32997C10.0292 2.18572 9.99845 2.03111 9.99845 1.87496C9.99845 1.71882 10.0292 1.56421 10.089 1.41995C10.1487 1.2757 10.2363 1.14462 10.3467 1.03421C10.4571 0.923804 10.5882 0.836223 10.7324 0.776469C10.8767 0.716718 11.0313 0.685964 11.1875 0.685964C11.3436 0.685964 11.4982 0.716718 11.6425 0.776469C11.7867 0.836223 11.9178 0.923805 12.0282 1.03421L19.1532 8.15921C19.2638 8.26952 19.3515 8.40057 19.4114 8.54484C19.4713 8.68911 19.5021 8.84377 19.5021 8.99996C19.5021 9.15616 19.4713 9.31082 19.4114 9.45509C19.3515 9.59936 19.2638 9.73041 19.1532 9.84071L12.0282 16.9657C11.8052 17.1887 11.5028 17.314 11.1875 17.314C10.8721 17.314 10.5697 17.1887 10.3467 16.9657C10.1237 16.7427 9.99845 16.4403 9.99845 16.125C9.99845 15.8096 10.1237 15.5072 10.3467 15.2842L15.4458 10.1875L1.68745 10.1875C1.37251 10.1875 1.07046 10.0624 0.847764 9.83965C0.625064 9.61695 0.499953 9.31491 0.499953 8.99996Z" fill="#1A286F"/>
</svg>
