<svg width="20" height="18" viewBox="0 0 20 18" fill="none" xmlns="http://www.w3.org/2000/svg">
<path fill-rule="evenodd" clip-rule="evenodd" d="M19.5 9.00004C19.5 9.31498 19.3749 9.61703 19.1522 9.83973C18.9295 10.0624 18.6274 10.1875 18.3125 10.1875H4.55413L9.65325 15.2843C9.76366 15.3947 9.85124 15.5258 9.911 15.67C9.97075 15.8143 10.0015 15.9689 10.0015 16.125C10.0015 16.2812 9.97075 16.4358 9.911 16.58C9.85124 16.7243 9.76366 16.8554 9.65325 16.9658C9.54284 17.0762 9.41177 17.1638 9.26751 17.2235C9.12326 17.2833 8.96864 17.314 8.8125 17.314C8.65636 17.314 8.50175 17.2833 8.35749 17.2235C8.21323 17.1638 8.08216 17.0762 7.97175 16.9658L0.846752 9.84079C0.736164 9.73048 0.648424 9.59943 0.588559 9.45516C0.528694 9.31089 0.497879 9.15623 0.497879 9.00004C0.497879 8.84384 0.528694 8.68918 0.588559 8.54491C0.648424 8.40064 0.736164 8.26959 0.846752 8.15929L7.97175 1.03429C8.19473 0.811305 8.49716 0.686035 8.8125 0.686035C9.12784 0.686035 9.43027 0.811305 9.65325 1.03429C9.87623 1.25727 10.0015 1.55969 10.0015 1.87504C10.0015 2.19038 9.87623 2.49281 9.65325 2.71579L4.55413 7.81254H18.3125C18.6274 7.81254 18.9295 7.93765 19.1522 8.16035C19.3749 8.38305 19.5 8.68509 19.5 9.00004Z" fill="#1A286F"/>
</svg>
