<svg width="28" height="28" viewBox="0 0 28 28" fill="none" xmlns="http://www.w3.org/2000/svg">
<path d="M18.9945 12.5056C19.076 12.5869 19.1406 12.6834 19.1848 12.7897C19.2289 12.896 19.2516 13.01 19.2516 13.1251C19.2516 13.2402 19.2289 13.3542 19.1848 13.4605C19.1406 13.5668 19.076 13.6633 18.9945 13.7446L13.7445 18.9946C13.6632 19.0761 13.5667 19.1407 13.4604 19.1848C13.3541 19.229 13.2401 19.2517 13.125 19.2517C13.0099 19.2517 12.896 19.229 12.7896 19.1848C12.6833 19.1407 12.5868 19.0761 12.5055 18.9946L9.88051 16.3696C9.79915 16.2882 9.73462 16.1917 9.69059 16.0854C9.64656 15.9791 9.6239 15.8652 9.6239 15.7501C9.6239 15.635 9.64656 15.5211 9.69059 15.4148C9.73462 15.3085 9.79915 15.212 9.88051 15.1306C10.0448 14.9663 10.2676 14.874 10.5 14.874C10.6151 14.874 10.729 14.8967 10.8353 14.9407C10.9416 14.9847 11.0382 15.0492 11.1195 15.1306L13.125 17.1378L17.7555 12.5056C17.8368 12.4241 17.9333 12.3595 18.0396 12.3154C18.146 12.2712 18.2599 12.2485 18.375 12.2485C18.4901 12.2485 18.6041 12.2712 18.7104 12.3154C18.8167 12.3595 18.9132 12.4241 18.9945 12.5056Z" fill="white"/>
<path d="M6.125 0C6.35706 0 6.57962 0.0921872 6.74372 0.256282C6.90781 0.420376 7 0.642936 7 0.875V1.75H21V0.875C21 0.642936 21.0922 0.420376 21.2563 0.256282C21.4204 0.0921872 21.6429 0 21.875 0C22.1071 0 22.3296 0.0921872 22.4937 0.256282C22.6578 0.420376 22.75 0.642936 22.75 0.875V1.75H24.5C25.4283 1.75 26.3185 2.11875 26.9749 2.77513C27.6313 3.4315 28 4.32174 28 5.25V24.5C28 25.4283 27.6313 26.3185 26.9749 26.9749C26.3185 27.6313 25.4283 28 24.5 28H3.5C2.57174 28 1.6815 27.6313 1.02513 26.9749C0.368749 26.3185 0 25.4283 0 24.5V5.25C0 4.32174 0.368749 3.4315 1.02513 2.77513C1.6815 2.11875 2.57174 1.75 3.5 1.75H5.25V0.875C5.25 0.642936 5.34219 0.420376 5.50628 0.256282C5.67038 0.0921872 5.89294 0 6.125 0ZM1.75 7V24.5C1.75 24.9641 1.93437 25.4092 2.26256 25.7374C2.59075 26.0656 3.03587 26.25 3.5 26.25H24.5C24.9641 26.25 25.4092 26.0656 25.7374 25.7374C26.0656 25.4092 26.25 24.9641 26.25 24.5V7H1.75Z" fill="white"/>
</svg>
