<svg width="28" height="28" viewBox="0 0 28 28" fill="none" xmlns="http://www.w3.org/2000/svg">
<path d="M7 18.8668C7.259 21.784 9.64775 23.8542 13.2843 24.122V26.25H15.1095V24.122C19.082 23.8088 21.546 21.6055 21.546 18.347C21.546 15.5645 19.8888 13.9545 16.373 13.048L15.1095 12.7207V6.06725C17.073 6.25975 18.3978 7.31675 18.732 8.89525H21.3045C21.014 6.09525 18.6095 4.08625 15.1095 3.864V1.75H13.2843V3.90775C9.891 4.31025 7.56175 6.48375 7.56175 9.43075C7.56175 11.9753 9.25225 13.776 12.2185 14.5355L13.286 14.819V21.8732C11.2752 21.5757 9.891 20.4732 9.55675 18.8668H7ZM12.9342 12.1538C11.109 11.6935 10.1342 10.71 10.1342 9.32575C10.1342 7.67375 11.3663 6.454 13.2843 6.12675V12.243L12.9342 12.1538ZM15.7185 15.4298C17.9708 15.995 18.9595 16.933 18.9595 18.5255C18.9595 20.4453 17.514 21.7245 15.1095 21.9187V15.2775L15.7185 15.428V15.4298Z" fill="white"/>
</svg>
