<svg width="22" height="28" viewBox="0 0 22 28" fill="none" xmlns="http://www.w3.org/2000/svg">
<path fill-rule="evenodd" clip-rule="evenodd" d="M11 4.23501L9.74523 2.94526C7.76773 0.913514 4.06998 1.58551 2.72773 4.20526C2.11523 5.40401 1.93848 7.19251 3.14073 9.56376C4.27998 11.8178 6.65998 14.56 11 17.5735C15.3382 14.5583 17.7182 11.816 18.8592 9.56376C20.0615 7.19251 19.8865 5.40401 19.2722 4.20701C17.93 1.58551 14.2322 0.913514 12.2547 2.94526L11 4.23501ZM10.1425 19.11C-8.72252 6.09001 4.89248 -3.91124 10.7707 1.49976C10.8495 1.57151 10.9265 1.64676 11.0017 1.72551C11.077 1.64676 11.154 1.57151 11.2327 1.49976C17.1127 -3.91124 30.7225 6.09176 11.8575 19.11L12.2687 19.929C12.2945 19.9805 12.3098 20.0365 12.3139 20.0939C12.318 20.1514 12.3107 20.209 12.2925 20.2636C12.2743 20.3182 12.2455 20.3687 12.2078 20.4122C12.1701 20.4556 12.1242 20.4913 12.0727 20.517C12.0213 20.5428 11.9652 20.5581 11.9078 20.5622C11.8504 20.5663 11.7927 20.559 11.7381 20.5408C11.6835 20.5226 11.6331 20.4938 11.5896 20.4561C11.5461 20.4184 11.5105 20.3725 11.4847 20.321L11.4707 20.2913C11.4847 20.4838 11.5057 20.6448 11.5355 20.7988C11.63 21.2713 11.8172 21.6528 12.2687 22.554C12.7727 23.5655 12.68 24.5665 12.4017 25.4048C12.127 26.2255 11.6632 26.922 11.3727 27.356L11.3657 27.3683C11.3338 27.4161 11.2927 27.4571 11.2449 27.489C11.1971 27.521 11.1435 27.5432 11.0871 27.5544C11.0307 27.5656 10.9727 27.5656 10.9163 27.5544C10.8599 27.5432 10.8063 27.521 10.7585 27.489C10.7107 27.4571 10.6696 27.416 10.6377 27.3682C10.6058 27.3204 10.5836 27.2668 10.5723 27.2104C10.5611 27.154 10.5611 27.096 10.5724 27.0396C10.5836 26.9832 10.6058 26.9296 10.6377 26.8818C10.9317 26.4408 11.3377 25.8318 11.5705 25.1265C11.8032 24.4335 11.8557 23.6845 11.4847 22.946L11.462 22.897C11.042 22.057 10.797 21.5705 10.678 20.9685C10.629 20.7085 10.5985 20.4453 10.587 20.181L10.517 20.321C10.4915 20.3728 10.456 20.4191 10.4126 20.4571C10.3692 20.4952 10.3186 20.5243 10.2639 20.5427C10.2092 20.5611 10.1514 20.5685 10.0938 20.5645C10.0362 20.5604 9.97995 20.545 9.92833 20.5192C9.87671 20.4933 9.83073 20.4575 9.79302 20.4138C9.75531 20.37 9.72663 20.3193 9.70864 20.2644C9.69064 20.2096 9.68368 20.1517 9.68816 20.0941C9.69264 20.0365 9.70847 19.9804 9.73473 19.929L10.146 19.11H10.1425ZM7.52273 3.60501C6.38698 3.29001 4.92748 3.75026 4.28523 5.00151C4.05598 5.45301 3.85648 6.20726 4.14523 7.33776C4.25548 7.76476 4.86973 7.68426 4.99748 7.26251C5.36498 6.04276 6.09473 4.73026 7.37573 4.30151C7.75548 4.17376 7.90773 3.71176 7.52273 3.60501Z" fill="white"/>
</svg>
