<svg width="26" height="28" viewBox="0 0 26 28" fill="none" xmlns="http://www.w3.org/2000/svg">
<path d="M8.34149 2.7825C6.67477 3.24185 5.01938 3.74132 3.37674 4.2805C3.22675 4.32909 3.09342 4.41882 2.99194 4.53949C2.89045 4.66016 2.8249 4.8069 2.80274 4.963C1.83324 12.2378 4.07324 17.5455 6.74549 21.042C7.8769 22.5372 9.22596 23.8544 10.7477 24.9497C11.3532 25.3767 11.8887 25.6847 12.3105 25.8825C12.5205 25.9822 12.692 26.0487 12.8232 26.089C12.8806 26.1091 12.9398 26.1238 13 26.1327C13.0594 26.1231 13.118 26.1085 13.175 26.089C13.308 26.0487 13.4795 25.9822 13.6895 25.8825C14.1095 25.6847 14.6467 25.375 15.2522 24.9497C16.774 23.8544 18.1231 22.5372 19.2545 21.042C21.9267 17.5473 24.1667 12.2378 23.1972 4.963C23.1753 4.80683 23.1098 4.65999 23.0083 4.53929C22.9068 4.41859 22.7733 4.32891 22.6232 4.2805C21.484 3.90775 19.5607 3.3005 17.6585 2.78425C15.716 2.2575 13.9292 1.86725 13 1.86725C12.0725 1.86725 10.284 2.25575 8.34149 2.7825ZM7.87599 0.98C9.77474 0.46375 11.7925 0 13 0C14.2075 0 16.2252 0.46375 18.124 0.98C20.0665 1.505 22.0247 2.12625 23.1762 2.5025C23.6577 2.66149 24.0845 2.95306 24.4077 3.34373C24.7309 3.73439 24.9373 4.20829 25.0032 4.711C26.0462 12.5458 23.626 18.3523 20.6895 22.1935C19.4443 23.8367 17.9595 25.2837 16.2847 26.4863C15.7057 26.9024 15.0921 27.2683 14.4507 27.58C13.9607 27.811 13.434 28 13 28C12.566 28 12.041 27.811 11.5492 27.58C10.9079 27.2683 10.2943 26.9024 9.71524 26.4863C8.04054 25.2837 6.55576 23.8367 5.31049 22.1935C2.37399 18.3523 -0.0462558 12.5458 0.996744 4.711C1.0627 4.20829 1.26912 3.73439 1.5923 3.34373C1.91548 2.95306 2.3423 2.66149 2.82374 2.5025C4.49533 1.95442 6.1799 1.44677 7.87599 0.98Z" fill="white"/>
<path d="M15.625 11.375C15.6253 11.918 15.4571 12.4478 15.1437 12.8913C14.8303 13.3348 14.387 13.6702 13.875 13.8512L14.5488 17.3337C14.5733 17.4604 14.5695 17.5909 14.5376 17.7159C14.5058 17.8409 14.4467 17.9574 14.3646 18.0569C14.2825 18.1564 14.1794 18.2365 14.0626 18.2915C13.9459 18.3465 13.8185 18.375 13.6895 18.375H12.3105C12.1816 18.3747 12.0544 18.346 11.9379 18.2909C11.8214 18.2358 11.7185 18.1557 11.6366 18.0562C11.5547 17.9567 11.4958 17.8404 11.464 17.7155C11.4323 17.5906 11.4285 17.4602 11.453 17.3337L12.125 13.8512C11.6713 13.6908 11.2705 13.4088 10.9662 13.036C10.662 12.6632 10.4661 12.2139 10.3999 11.7373C10.3338 11.2607 10.3999 10.7751 10.591 10.3335C10.7822 9.8919 11.0911 9.51135 11.4839 9.23344C11.8767 8.95552 12.3384 8.79092 12.8184 8.75763C13.2984 8.72434 13.7784 8.82364 14.2058 9.04468C14.6332 9.26571 14.9917 9.59998 15.2419 10.0109C15.4922 10.4219 15.6247 10.8938 15.625 11.375Z" fill="white"/>
</svg>
