<svg width="20" height="20" viewBox="0 0 20 20" fill="none" xmlns="http://www.w3.org/2000/svg">
<g clip-path="url(#clip0_27_400)">
<path d="M20 10C20 12.6522 18.9464 15.1957 17.0711 17.0711C15.1957 18.9464 12.6522 20 10 20C7.34784 20 4.8043 18.9464 2.92893 17.0711C1.05357 15.1957 0 12.6522 0 10C0 7.34784 1.05357 4.8043 2.92893 2.92893C4.8043 1.05357 7.34784 0 10 0C12.6522 0 15.1957 1.05357 17.0711 2.92893C18.9464 4.8043 20 7.34784 20 10ZM10.3587 7.3825C9.38625 7.7875 7.44125 8.625 4.52625 9.895C4.05375 10.0825 3.805 10.2675 3.7825 10.4475C3.74504 10.7509 4.12542 10.871 4.6433 11.0345L4.645 11.035L4.86375 11.1038C5.37375 11.27 6.06125 11.4638 6.4175 11.4713C6.7425 11.4788 7.10375 11.3463 7.5025 11.0713C10.2262 9.2325 11.6325 8.30375 11.72 8.28375C11.7825 8.26875 11.87 8.25125 11.9275 8.30375C11.9862 8.355 11.98 8.45375 11.9738 8.48C11.9369 8.63845 10.4916 9.98331 9.70723 10.7131C9.69336 10.726 9.6797 10.7387 9.66625 10.7512C9.425 10.9762 9.25375 11.135 9.21875 11.1713C9.14168 11.25 9.06333 11.3275 8.98375 11.4038C8.50875 11.8612 8.15375 12.2037 9.0025 12.7638C9.41125 13.0338 9.73875 13.255 10.065 13.4775C10.42 13.72 10.775 13.9613 11.235 14.2638C11.3512 14.3387 11.4637 14.42 11.5725 14.4975C11.9862 14.7925 12.36 15.0575 12.8188 15.015C13.0863 14.99 13.3625 14.74 13.5025 13.99C13.8338 12.2188 14.485 8.3825 14.635 6.80125C14.6442 6.6698 14.6387 6.53775 14.6187 6.4075C14.607 6.3024 14.5561 6.20557 14.4763 6.13625C14.3625 6.05774 14.2269 6.01706 14.0887 6.02C13.7137 6.02625 13.135 6.2275 10.3587 7.3825Z" fill="#1A286F"/>
<path d="M10.3587 7.3825C9.38625 7.7875 7.44125 8.625 4.52625 9.895C4.05375 10.0825 3.805 10.2675 3.7825 10.4475C3.74504 10.7509 4.12542 10.871 4.6433 11.0345L4.645 11.035L4.86375 11.1038C5.37375 11.27 6.06125 11.4638 6.4175 11.4713C6.7425 11.4788 7.10375 11.3463 7.5025 11.0713C10.2262 9.2325 11.6325 8.30375 11.72 8.28375C11.7825 8.26875 11.87 8.25125 11.9275 8.30375C11.9862 8.355 11.98 8.45375 11.9738 8.48C11.9369 8.63845 10.4916 9.98331 9.70723 10.7131L9.66625 10.7512C9.425 10.9762 9.25375 11.135 9.21875 11.1713C9.14168 11.25 9.06333 11.3275 8.98375 11.4038C8.50875 11.8612 8.15375 12.2037 9.0025 12.7638C9.41125 13.0338 9.73875 13.255 10.065 13.4775C10.42 13.72 10.775 13.9613 11.235 14.2638C11.3512 14.3387 11.4637 14.42 11.5725 14.4975C11.9862 14.7925 12.36 15.0575 12.8188 15.015C13.0863 14.99 13.3625 14.74 13.5025 13.99C13.8338 12.2188 14.485 8.3825 14.635 6.80125C14.6442 6.6698 14.6387 6.53775 14.6187 6.4075C14.607 6.3024 14.5561 6.20557 14.4763 6.13625C14.3625 6.05774 14.2269 6.01706 14.0887 6.02C13.7137 6.02625 13.135 6.2275 10.3587 7.3825Z" fill="#1A286F"/>
<path d="M13.7201 10.5C13.6101 10.5 13.4951 10.465 13.3851 10.44C13.1623 10.3909 12.9434 10.3257 12.7301 10.245C12.4981 10.1606 12.2431 10.165 12.0142 10.2573C11.7853 10.3496 11.5986 10.5233 11.4901 10.745L11.3801 10.97C10.8931 10.6991 10.4455 10.3626 10.0501 9.97C9.65743 9.57451 9.32096 9.127 9.05005 8.64L9.26005 8.5C9.48173 8.39146 9.65544 8.20477 9.74775 7.97585C9.84005 7.74693 9.84444 7.49196 9.76005 7.26C9.68066 7.04621 9.61552 6.8274 9.56505 6.605C9.54005 6.495 9.52005 6.38 9.50505 6.265C9.44433 5.91281 9.25986 5.59387 8.98486 5.36562C8.70986 5.13737 8.3624 5.01481 8.00505 5.02H6.50505C6.28957 5.01798 6.07618 5.06241 5.87941 5.15027C5.68264 5.23812 5.50711 5.36735 5.36477 5.52914C5.22243 5.69093 5.11662 5.8815 5.05454 6.08786C4.99247 6.29422 4.97559 6.51153 5.00505 6.725C5.27142 8.81969 6.22806 10.7659 7.72388 12.2563C9.21969 13.7467 11.1694 14.6963 13.2651 14.955H13.4551C13.8238 14.9555 14.1797 14.8203 14.4551 14.575C14.6132 14.4335 14.7396 14.2601 14.8258 14.0662C14.912 13.8722 14.956 13.6622 14.9551 13.45V11.95C14.9489 11.6027 14.8225 11.2683 14.5972 11.0038C14.372 10.7394 14.062 10.5613 13.7201 10.5ZM13.9701 13.5C13.97 13.571 13.9548 13.6412 13.9254 13.7058C13.8961 13.7705 13.8534 13.8281 13.8001 13.875C13.7443 13.9235 13.679 13.9597 13.6084 13.9812C13.5377 14.0028 13.4633 14.0092 13.3901 14C11.5175 13.7599 9.77817 12.9032 8.44641 11.5651C7.11465 10.227 6.26626 8.48367 6.03505 6.61C6.02709 6.53676 6.03407 6.46267 6.05555 6.3922C6.07704 6.32173 6.11259 6.25634 6.16005 6.2C6.20691 6.14667 6.26458 6.10392 6.32924 6.07461C6.3939 6.0453 6.46406 6.03009 6.53505 6.03H8.03505C8.15132 6.02741 8.26486 6.06544 8.35612 6.13754C8.44738 6.20963 8.51066 6.31129 8.53505 6.425C8.55505 6.56167 8.58005 6.69667 8.61005 6.83C8.66781 7.09357 8.74468 7.35259 8.84005 7.605L8.14005 7.93C8.0802 7.95746 8.02636 7.99647 7.98163 8.0448C7.9369 8.09312 7.90215 8.14981 7.87939 8.2116C7.85662 8.27339 7.84629 8.33907 7.84897 8.40486C7.85166 8.47066 7.86732 8.53527 7.89505 8.595C8.61465 10.1364 9.85367 11.3754 11.3951 12.095C11.5168 12.145 11.6533 12.145 11.7751 12.095C11.8374 12.0727 11.8947 12.0382 11.9436 11.9936C11.9926 11.949 12.0321 11.8951 12.0601 11.835L12.3701 11.135C12.6285 11.2274 12.8923 11.3042 13.1601 11.365C13.2934 11.395 13.4284 11.42 13.5651 11.44C13.6788 11.4644 13.7804 11.5277 13.8525 11.6189C13.9246 11.7102 13.9626 11.8237 13.9601 11.94L13.9701 13.5Z" fill="#ECEEF7"/>
</g>
<defs>
<clipPath id="clip0_27_400">
<rect width="20" height="20" fill="white"/>
</clipPath>
</defs>
</svg>
